# xmcd
#
# Track frame offsets: 
#        150
#        26536
#        46627
#        66125
#        88732
#        110715
#        132254
#        152790
#        169172
#        188534
#        208551
#        231408
#        247636
#        268231
#        288974
#        318470
#
# Disc length: 4795 seconds
#
# Revision: 0
# Processed by: cddbd v1.5.1PL0 Copyright (c) Steve Scherf et al.
# Submitted via: ExactAudioCopy v0.95a5
#
DISCID=db12b910
DTITLE=Loose Ends - The Best Of
DYEAR=2003
DGENRE=R&B
TTITLE0=Hangin' On A String
TTITLE1=Magic Touch
TTITLE2=Don't Be A Fool
TTITLE3=Slow Down
TTITLE4=Emergency (Dial 999)
TTITLE5=Tell Me What You Want
TTITLE6=Choose Me
TTITLE7=Golden Years
TTITLE8=Mr Bachelor
TTITLE9=Nights Of Pleasure
TTITLE10=Stay A Little While Child
TTITLE11=Love's Got Me
TTITLE12=Ooh You Make Me Feel
TTITLE13=Watching You
TTITLE14=Cheap Talk
TTITLE15=Data
EXTD=
EXTT0=
EXTT1=
EXTT2=
EXTT3=
EXTT4=
EXTT5=
EXTT6=
EXTT7=
EXTT8=
EXTT9=
EXTT10=
EXTT11=
EXTT12=
EXTT13=
EXTT14=
EXTT15=
PLAYORDER=
